<?xml version="1.0" standalone="no"?>
<!DOCTYPE svg PUBLIC "-//W3C//DTD SVG 20010904//EN"
 "http://www.w3.org/TR/2001/REC-SVG-20010904/DTD/svg10.dtd">
<svg version="1.0" xmlns="http://www.w3.org/2000/svg"
 width="1024.000000pt" height="1024.000000pt" viewBox="0 0 1024.000000 1024.000000"
 preserveAspectRatio="xMidYMid meet">
<metadata>
Created by potrace 1.14, written by Peter Selinger 2001-2017
</metadata>
<g transform="translate(0.000000,1024.000000) scale(0.100000,-0.100000)"
fill="#000000" stroke="none">
<path d="M0 5120 l0 -5120 5120 0 5120 0 0 5120 0 5120 -5120 0 -5120 0 0
-5120z m5201 3464 c11 -13 13 -52 11 -168 -3 -151 -9 -176 -41 -176 -37 0 -41
20 -41 182 0 139 2 158 18 167 24 15 38 13 53 -5z m-697 -150 c17 -7 82 -198
93 -270 5 -35 2 -44 -15 -53 -41 -22 -77 46 -128 242 -15 57 -15 62 2 74 20
15 26 16 48 7z m1414 -7 c14 -16 10 -32 -40 -185 -43 -129 -60 -152 -98 -132
-11 6 -20 18 -20 27 0 26 71 256 86 281 16 24 55 30 72 9z m-2006 -169 c14
-12 110 -171 151 -250 24 -47 10 -81 -31 -76 -29 3 -75 70 -152 221 -31 62
-38 83 -30 98 12 22 39 25 62 7z m2598 -3 c11 -13 10 -23 -4 -53 -28 -59 -144
-248 -161 -262 -22 -19 -65 -4 -65 22 0 22 74 159 137 256 37 55 68 67 93 37z
m-935 -219 c460 -97 806 -288 1118 -616 156 -164 263 -315 356 -503 181 -368
238 -770 165 -1161 -51 -270 -152 -502 -383 -884 -208 -345 -237 -413 -277
-646 -78 -465 -138 -593 -366 -782 l-88 -73 -953 6 -952 5 -73 55 c-85 65
-174 161 -221 237 -48 81 -77 174 -116 378 -76 396 -86 420 -339 837 -237 389
-330 632 -365 953 -63 571 152 1161 577 1584 277 276 599 471 928 562 255 71
350 82 639 77 198 -3 246 -7 350 -29z m-2093 -244 c70 -70 128 -135 128 -144
0 -21 -27 -48 -48 -48 -16 0 -244 225 -262 260 -11 21 14 60 38 60 9 0 74 -58
144 -128z m3578 108 c11 -11 20 -24 20 -28 0 -6 -176 -186 -265 -271 -2 -2
-16 -1 -30 3 -19 5 -25 13 -25 32 0 42 232 284 272 284 4 0 17 -9 28 -20z
m-3990 -678 c113 -56 136 -71 138 -91 6 -42 -22 -53 -79 -31 -69 28 -211 99
-231 118 -30 26 -16 72 22 72 8 -1 76 -31 150 -68z m4380 44 c6 -8 10 -25 8
-37 -2 -18 -31 -38 -133 -91 -71 -37 -136 -68 -142 -68 -22 0 -48 50 -36 68
13 22 242 142 269 142 12 0 27 -7 34 -14z m-4711 -693 c146 -29 177 -45 162
-85 -4 -13 -18 -24 -30 -26 -25 -4 -254 44 -282 59 -21 11 -25 49 -7 67 15 15
1 16 157 -15z m5011 12 c15 -18 6 -61 -16 -69 -26 -10 -235 -56 -254 -56 -9 0
-25 9 -34 19 -14 15 -15 24 -7 40 12 22 39 31 171 61 106 23 124 24 140 5z
m-121 -530 c62 -8 107 -19 112 -27 9 -13 3 -47 -11 -61 -8 -9 -233 7 -262 18
-18 7 -23 39 -12 69 8 20 36 20 173 1z m-4761 -33 c4 -41 -6 -45 -161 -62
-124 -13 -147 -9 -147 30 0 45 91 70 245 66 l60 -1 3 -33z m4740 -512 c1 0 2
-7 2 -15 0 -18 -34 -20 -79 -4 -29 10 -39 27 -25 42 3 3 27 -1 52 -9 26 -7 48
-14 50 -14z m-4650 -233 c3 -25 -2 -30 -62 -57 -93 -42 -125 -38 -112 13 7 29
100 77 141 74 25 -2 31 -7 33 -30z m4352 -108 c89 -47 124 -80 115 -108 -6
-20 -12 -22 -38 -17 -41 8 -166 86 -173 109 -6 19 11 47 28 47 6 0 36 -14 68
-31z m-4106 -455 c10 -27 -99 -119 -128 -108 -30 11 -16 41 40 87 54 45 77 50
88 21z m3909 -219 c36 -25 47 -48 27 -60 -14 -8 -100 52 -100 70 0 23 31 18
73 -10z m-1128 -1274 c-21 -18 -435 -103 -635 -130 -41 -5 -145 -12 -230 -15
l-155 -5 114 15 c63 9 281 45 485 79 372 64 438 73 421 56z m154 -47 c28 -36
26 -60 -7 -93 -74 -74 -364 -141 -913 -211 -337 -43 -609 -62 -830 -58 l-189
3 -27 27 c-34 34 -37 89 -6 119 20 20 32 21 349 24 515 4 857 45 1378 166 93
21 172 41 174 44 14 14 53 2 71 -21z m-1801 -121 c-10 -2 -28 -2 -40 0 -13 2
-5 4 17 4 22 1 32 -1 23 -4z m1637 -132 c-39 -38 -569 -127 -710 -119 -50 2
-14 11 230 51 160 27 317 54 350 62 72 16 143 19 130 6z m145 -41 c23 -12 33
-52 21 -83 -38 -99 -537 -200 -1294 -262 -227 -18 -563 -20 -619 -3 -39 12
-88 58 -88 83 0 28 25 67 51 81 22 11 43 12 101 4 170 -22 660 -7 993 30 207
23 644 108 740 144 48 18 70 19 95 6z m-150 -269 c-24 -14 -245 -59 -374 -76
-108 -14 -336 -21 -325 -10 3 2 67 11 144 20 76 8 204 26 284 40 80 13 157 26
171 28 50 8 116 7 100 -2z m147 -53 c47 -44 16 -104 -70 -136 -163 -61 -580
-125 -1057 -162 -175 -13 -663 -14 -715 -1 -46 12 -95 60 -95 95 0 33 31 68
60 68 14 0 77 -5 140 -12 171 -17 773 8 1050 45 189 26 449 73 540 99 108 30
119 31 147 4z m-212 -298 c-1 -88 -49 -176 -154 -281 -68 -68 -105 -95 -179
-133 -269 -137 -577 -139 -852 -3 -88 43 -118 64 -185 132 -81 80 -142 173
-131 200 4 11 21 15 60 15 53 0 56 -1 89 -45 72 -94 214 -182 362 -226 109
-32 296 -37 407 -10 195 46 351 148 437 285 17 28 31 61 31 74 0 21 -3 24 -27
18 -102 -22 -328 -56 -436 -65 -132 -11 -224 -14 -216 -7 2 2 85 14 184 25 99
12 250 32 335 46 289 45 275 46 275 -25z"/>
<path d="M5000 7889 c-276 -26 -571 -122 -810 -262 -412 -244 -730 -634 -868
-1067 -63 -198 -77 -294 -77 -525 1 -180 4 -225 23 -315 49 -227 142 -451 279
-673 298 -485 325 -544 383 -863 66 -365 124 -492 274 -599 l64 -45 251 0 251
0 0 529 c0 297 4 540 9 554 5 13 23 29 39 36 27 11 30 18 39 85 13 91 36 140
89 191 l42 41 -82 164 c-46 91 -94 183 -108 205 -53 85 -180 328 -205 392 -21
54 -26 86 -27 158 -1 82 2 96 33 162 40 87 132 180 213 218 98 46 234 28 325
-41 32 -24 38 -26 57 -14 102 66 129 75 221 75 78 0 97 -4 147 -28 125 -62
208 -171 228 -304 21 -133 1 -187 -185 -513 -58 -102 -138 -250 -178 -328
l-72 -144 25 -16 c58 -38 99 -92 120 -158 11 -36 20 -81 20 -99 0 -24 9 -42
30 -63 l30 -30 0 -536 0 -535 211 -3 c203 -3 214 -2 251 19 79 45 160 118 202
182 54 82 78 154 112 334 70 385 80 420 169 597 29 58 94 177 145 265 157 270
172 296 225 410 64 134 106 256 142 406 26 106 27 129 27 339 0 212 -1 232
-28 344 -37 160 -75 267 -146 411 -69 142 -131 234 -260 386 -404 477 -1001
718 -1630 658z m1349 -631 c62 -30 224 -195 294 -301 64 -94 116 -206 117
-248 0 -32 -36 -67 -78 -75 -27 -6 -36 -2 -64 28 -18 19 -55 72 -81 119 -62
109 -162 225 -257 294 -41 31 -78 61 -82 68 -31 48 26 133 91 136 8 1 35 -9
60 -21z m-1848 -964 c78 -76 89 -97 63 -125 -29 -32 -53 -22 -125 53 -71 75
-76 86 -59 119 19 34 49 22 121 -47z m1503 50 c9 -8 16 -22 16 -31 0 -19 -106
-125 -147 -146 -29 -16 -33 -15 -53 1 -29 24 -22 38 68 125 73 70 90 77 116
51z m-1554 -489 c14 -9 13 -58 -2 -73 -8 -8 -56 -12 -149 -12 -150 0 -163 5
-157 57 l3 28 130 5 c138 5 159 5 175 -5z m1774 -1 c10 -4 16 -18 16 -35 0
-50 -26 -57 -183 -52 -124 5 -139 8 -148 25 -6 11 -8 31 -5 44 l6 24 149 0
c82 0 156 -3 165 -6z"/>
<path d="M4832 6160 c-101 -51 -155 -145 -155 -270 1 -97 20 -145 164 -401
109 -196 206 -392 228 -459 l11 -35 84 0 84 1 95 189 c53 105 143 273 202 375
58 102 113 210 122 240 37 126 7 251 -79 324 -106 91 -243 85 -353 -16 -29
-26 -57 -48 -62 -48 -5 0 -27 18 -48 41 -53 54 -106 80 -174 86 -48 4 -65 0
-119 -27z"/>
<path d="M5054 4861 c-60 -27 -94 -77 -94 -134 0 -47 0 -47 34 -47 32 0 66
-20 66 -40 0 -5 3 -15 6 -23 11 -31 -24 -47 -102 -47 l-74 0 -1 -217 c0 -120
-2 -319 -3 -443 -2 -124 -1 -258 1 -297 l5 -73 284 0 285 0 -3 509 c-2 280 -6
512 -9 515 -3 3 -37 9 -75 14 -69 7 -69 7 -67 37 3 38 36 65 78 65 l32 0 -8
49 c-10 66 -31 95 -87 123 -66 32 -208 37 -268 9z"/>
</g>
</svg>
