<?xml version="1.0" standalone="no"?>
<!DOCTYPE svg PUBLIC "-//W3C//DTD SVG 20010904//EN"
 "http://www.w3.org/TR/2001/REC-SVG-20010904/DTD/svg10.dtd">
<svg version="1.0" xmlns="http://www.w3.org/2000/svg"
 width="512.000000pt" height="512.000000pt" viewBox="0 0 512.000000 512.000000"
 preserveAspectRatio="xMidYMid meet">
<metadata>
Created by potrace 1.14, written by Peter Selinger 2001-2017
</metadata>
<g transform="translate(0.000000,512.000000) scale(0.100000,-0.100000)"
fill="#000000" stroke="none">
<path d="M2492 5003 c-32 -6 -88 -65 -95 -99 -3 -16 -5 -135 -5 -265 l0 -236
139 0 139 1 0 245 c0 214 -2 250 -18 280 -30 60 -89 87 -160 74z"/>
<path d="M1100 4423 c-73 -37 -100 -124 -61 -190 11 -17 98 -110 194 -206
l173 -174 97 101 96 101 -167 168 c-92 93 -179 177 -194 188 -39 28 -96 33
-138 12z"/>
<path d="M3840 4419 c-36 -22 -370 -350 -370 -364 0 -4 42 -51 92 -104 l93
-98 176 176 c190 190 210 214 211 258 3 111 -113 186 -202 132z"/>
<path d="M2385 4133 c-99 -14 -265 -56 -323 -83 -37 -18 -83 -39 -102 -48
-147 -67 -363 -253 -467 -403 -87 -126 -179 -332 -199 -442 -2 -17 -7 -33 -9
-37 -18 -29 -26 -355 -11 -455 48 -328 140 -504 418 -803 156 -168 163 -188
173 -463 4 -124 19 -182 62 -238 39 -51 61 -69 123 -99 l55 -26 425 0 425 0
56 25 c86 40 153 119 173 204 4 17 9 71 12 120 12 295 18 312 163 464 276 289
386 497 427 806 45 343 -23 654 -203 922 -53 79 -183 222 -258 284 -140 115
-401 235 -554 255 -18 2 -38 7 -43 10 -12 8 -297 13 -343 7z m271 -217 c453
-55 825 -403 909 -850 31 -168 22 -373 -26 -545 -44 -162 -142 -319 -312 -498
-116 -123 -139 -152 -186 -237 -34 -59 -57 -217 -60 -397 -1 -70 -4 -80 -30
-108 l-29 -31 -386 0 c-334 0 -390 2 -411 16 -31 20 -41 53 -44 139 -4 99 -14
212 -27 290 -10 58 -67 165 -119 221 -227 246 -252 276 -312 374 -21 36 -47
85 -57 110 -10 25 -22 54 -27 65 -30 68 -62 269 -63 395 -1 402 227 771 589
953 82 41 207 84 270 92 24 4 65 10 92 13 56 9 146 8 229 -2z"/>
<path d="M561 3059 c-66 -14 -111 -68 -111 -135 0 -41 29 -92 66 -114 31 -20
48 -21 290 -21 141 0 257 1 259 3 1 2 5 64 8 138 l5 135 -243 0 c-134 0 -257
-3 -274 -6z"/>
<path d="M3984 3025 c3 -22 7 -84 8 -137 l1 -98 61 -1 c329 -3 456 1 486 16
89 46 94 176 8 236 -31 23 -37 23 -300 24 l-269 1 5 -41z"/>
<path d="M1182 1775 c-78 -79 -147 -156 -152 -170 -43 -112 61 -221 174 -182
16 6 92 72 168 148 l139 137 -53 63 c-30 35 -69 83 -87 107 -18 23 -36 42 -39
42 -4 0 -71 -65 -150 -145z"/>
<path d="M3679 1863 c-41 -54 -78 -99 -106 -129 -7 -7 -13 -18 -13 -24 0 -6
60 -71 134 -144 122 -122 168 -155 204 -150 6 1 23 2 37 3 14 0 41 16 61 34
38 35 53 89 39 144 -4 17 -62 84 -153 176 -80 81 -149 147 -153 147 -4 0 -26
-26 -50 -57z"/>
<path d="M2121 932 c-94 -48 -101 -170 -13 -228 25 -17 60 -18 417 -18 425 0
427 0 469 57 29 40 26 119 -6 154 -47 52 -59 53 -460 53 -335 0 -376 -2 -407
-18z"/>
<path d="M2148 609 c-66 -18 -109 -77 -102 -142 5 -39 52 -99 85 -108 13 -4
195 -7 404 -8 360 -1 382 0 412 19 86 52 92 163 12 221 l-33 23 -377 1 c-208
0 -388 -2 -401 -6z"/>
<path d="M2234 248 c7 -35 35 -61 96 -91 40 -19 62 -21 200 -21 138 -1 160 2
202 21 57 26 98 67 98 98 l0 22 -301 0 -301 0 6 -29z"/>
</g>
</svg>
